<?xml version="1.0" encoding="UTF-8" standalone="no"?>
<svg
   xmlns:dc="http://purl.org/dc/elements/1.1/"
   xmlns:cc="http://creativecommons.org/ns#"
   xmlns:rdf="http://www.w3.org/1999/02/22-rdf-syntax-ns#"
   xmlns:svg="http://www.w3.org/2000/svg"
   xmlns="http://www.w3.org/2000/svg"
   xmlns:sodipodi="http://sodipodi.sourceforge.net/DTD/sodipodi-0.dtd"
   xmlns:inkscape="http://www.inkscape.org/namespaces/inkscape"
   sodipodi:docname="eye.svg"
   inkscape:version="1.0 (4035a4fb49, 2020-05-01)"
   id="svg877"
   version="1.1"
   height="80"
   width="80">
  <defs
     id="defs871" />
  <g
     id="layer1"
     inkscape:groupmode="layer"
     inkscape:label="Layer 1">
    <path
       d="M 39.92384,1.8192776e-5 A 40.000011,40.000002 0 0 0 0,40.000008 a 40.000011,40.000002 0 0 0 40,40 40.000011,40.000002 0 0 0 40,-40 A 40.000011,40.000002 0 0 0 40,1.8192776e-5 a 40.000011,40.000002 0 0 0 -0.0763,0 z M 40.00014,27.000028 c 13.00018,4.5e-4 26.00149,6.50075 39.00001,12.99998 -12.99852,6.4992 -25.99983,12.99954 -39.00001,12.99999 -13.00018,4.9e-4 -25.99991,-6.49995 -39.00001,-12.99999 13.0001,-6.50003 25.99983,-13.00048 39.00001,-12.99998 z"
       style="fill:#000000;stroke-width:3.61235"
       id="path891" />
  </g>
</svg>
