<?xml version="1.0" encoding="UTF-8" standalone="no"?>
<svg
   xmlns:dc="http://purl.org/dc/elements/1.1/"
   xmlns:cc="http://creativecommons.org/ns#"
   xmlns:rdf="http://www.w3.org/1999/02/22-rdf-syntax-ns#"
   xmlns:svg="http://www.w3.org/2000/svg"
   xmlns="http://www.w3.org/2000/svg"
   xmlns:sodipodi="http://sodipodi.sourceforge.net/DTD/sodipodi-0.dtd"
   xmlns:inkscape="http://www.inkscape.org/namespaces/inkscape"
   inkscape:version="1.0 (4035a4fb49, 2020-05-01)"
   sodipodi:docname="logo.svg"
   id="svg60"
   version="1.1"
   height="316"
   width="316">
  <metadata
     id="metadata66">
    <rdf:RDF>
      <cc:Work
         rdf:about="">
        <dc:format>image/svg+xml</dc:format>
        <dc:type
           rdf:resource="http://purl.org/dc/dcmitype/StillImage" />
        <dc:title></dc:title>
      </cc:Work>
    </rdf:RDF>
  </metadata>
  <defs
     id="defs64">
    <inkscape:path-effect
       only_selected="false"
       apply_with_weight="true"
       apply_no_weight="true"
       helper_size="0"
       steps="2"
       weight="33.333333"
       lpeversion="1"
       is_visible="true"
       id="path-effect911"
       effect="bspline" />
  </defs>
  <sodipodi:namedview
     inkscape:current-layer="svg60"
     inkscape:window-maximized="0"
     inkscape:window-y="234"
     inkscape:window-x="3401"
     inkscape:cy="109.27629"
     inkscape:cx="130.38073"
     inkscape:zoom="2"
     inkscape:guide-bbox="true"
     showguides="true"
     showgrid="false"
     id="namedview62"
     inkscape:window-height="1290"
     inkscape:window-width="2156"
     inkscape:pageshadow="2"
     inkscape:pageopacity="0"
     guidetolerance="10"
     gridtolerance="10"
     objecttolerance="10"
     borderopacity="1"
     bordercolor="#666666"
     pagecolor="#ffffff">
    <sodipodi:guide
       id="guide893"
       orientation="1,0"
       position="-1080.9206,988.12698" />
    <sodipodi:guide
       id="guide895"
       orientation="0,-1"
       position="-263.33333,1050.8254" />
  </sodipodi:namedview>
  <g
     id="g6">
    <circle
       id="circle2"
       style="fill:none; stroke:#000000; stroke-width: 10;"
       r="50"
       cy="158"
       cx="158" />
    <circle
       id="circle4"
       style="fill:none; stroke:#000000; stroke-width: 16;"
       r="150"
       cy="158"
       cx="158" />
  </g>
  <g
     id="g10"
     transform="translate(210, 101) scale(1.65)  rotate(0,0,35)">
    <path
       id="path8"
       style="fill: rgb(0, 0, 0); fill-opacity: 1; stroke: rgb(0, 0, 0); stroke-width: 0px; stroke-linecap: butt; stroke-linejoin: miter; stroke-opacity: 1;"
       d="M 11.184079,38.055852 C 20.140698,38.32902 36.782538,38.79044 43.636514,32.648911 50.490491,26.507382 47.556204,13.76332 45.383508,7.1143484 43.210812,0.46537666 41.7997,-0.08744918 39.984397,0.18214423 38.169093,0.45173763 35.950541,1.543738 35.517561,2.4178822 c -0.432981,0.8741441 0.919819,1.5298861 2.580588,5.2326181 1.660769,3.7027317 3.629761,10.4522017 3.007212,15.1577347 -0.62255,4.705533 -3.836374,7.367053 -10.820798,8.391065 -6.984424,1.024013 -17.738896,0.410466 -23.3515375,0.261806 -5.6126417,-0.14866 -6.08260506,0.16757 -6.43347571,1.270487 -0.35087066,1.102918 -0.58266652,2.992211 -0.0629149,3.979194 0.51975165,0.986984 1.79082548,1.071897 10.74744408,1.345065 z" />
  </g>
  <g
     id="g14"
     transform="translate(204.0437133339669, 125.16560494627596) scale(1.65)  rotate(27.692307692307693,0,35)">
    <path
       id="path12"
       style="fill: rgb(0, 0, 0); fill-opacity: 1; stroke: rgb(0, 0, 0); stroke-width: 0px; stroke-linecap: butt; stroke-linejoin: miter; stroke-opacity: 1;"
       d="M 11.184079,38.055852 C 20.140698,38.32902 36.782538,38.79044 43.636514,32.648911 50.490491,26.507382 47.556204,13.76332 45.383508,7.1143484 43.210812,0.46537666 41.7997,-0.08744918 39.984397,0.18214423 38.169093,0.45173763 35.950541,1.543738 35.517561,2.4178822 c -0.432981,0.8741441 0.919819,1.5298861 2.580588,5.2326181 1.660769,3.7027317 3.629761,10.4522017 3.007212,15.1577347 -0.62255,4.705533 -3.836374,7.367053 -10.820798,8.391065 -6.984424,1.024013 -17.738896,0.410466 -23.3515375,0.261806 -5.6126417,-0.14866 -6.08260506,0.16757 -6.43347571,1.270487 -0.35087066,1.102918 -0.58266652,2.992211 -0.0629149,3.979194 0.51975165,0.986984 1.79082548,1.071897 10.74744408,1.345065 z" />
  </g>
  <g
     id="g18"
     transform="translate(187.5393668300201, 143.79516102647014) scale(1.65)  rotate(55.38461538461539,0,35)">
    <path
       id="path16"
       style="fill: rgb(0, 0, 0); fill-opacity: 1; stroke: rgb(0, 0, 0); stroke-width: 0px; stroke-linecap: butt; stroke-linejoin: miter; stroke-opacity: 1;"
       d="M 11.184079,38.055852 C 20.140698,38.32902 36.782538,38.79044 43.636514,32.648911 50.490491,26.507382 47.556204,13.76332 45.383508,7.1143484 43.210812,0.46537666 41.7997,-0.08744918 39.984397,0.18214423 38.169093,0.45173763 35.950541,1.543738 35.517561,2.4178822 c -0.432981,0.8741441 0.919819,1.5298861 2.580588,5.2326181 1.660769,3.7027317 3.629761,10.4522017 3.007212,15.1577347 -0.62255,4.705533 -3.836374,7.367053 -10.820798,8.391065 -6.984424,1.024013 -17.738896,0.410466 -23.3515375,0.261806 -5.6126417,-0.14866 -6.08260506,0.16757 -6.43347571,1.270487 -0.35087066,1.102918 -0.58266652,2.992211 -0.0629149,3.979194 0.51975165,0.986984 1.79082548,1.071897 10.74744408,1.345065 z" />
  </g>
  <g
     id="g22"
     transform="translate(164.26790737327678, 152.6208614530988) scale(1.65)  rotate(83.07692307692308,0,35)">
    <path
       id="path20"
       style="fill: rgb(0, 0, 0); fill-opacity: 1; stroke: rgb(0, 0, 0); stroke-width: 0px; stroke-linecap: butt; stroke-linejoin: miter; stroke-opacity: 1;"
       d="M 11.184079,38.055852 C 20.140698,38.32902 36.782538,38.79044 43.636514,32.648911 50.490491,26.507382 47.556204,13.76332 45.383508,7.1143484 43.210812,0.46537666 41.7997,-0.08744918 39.984397,0.18214423 38.169093,0.45173763 35.950541,1.543738 35.517561,2.4178822 c -0.432981,0.8741441 0.919819,1.5298861 2.580588,5.2326181 1.660769,3.7027317 3.629761,10.4522017 3.007212,15.1577347 -0.62255,4.705533 -3.836374,7.367053 -10.820798,8.391065 -6.984424,1.024013 -17.738896,0.410466 -23.3515375,0.261806 -5.6126417,-0.14866 -6.08260506,0.16757 -6.43347571,1.270487 -0.35087066,1.102918 -0.58266652,2.992211 -0.0629149,3.979194 0.51975165,0.986984 1.79082548,1.071897 10.74744408,1.345065 z" />
  </g>
  <g
     id="g26"
     transform="translate(139.56054587378816, 149.62084461964156) scale(1.65)  rotate(110.76923076923077,0,35)">
    <path
       id="path24"
       style="fill: rgb(0, 0, 0); fill-opacity: 1; stroke: rgb(0, 0, 0); stroke-width: 0px; stroke-linecap: butt; stroke-linejoin: miter; stroke-opacity: 1;"
       d="M 11.184079,38.055852 C 20.140698,38.32902 36.782538,38.79044 43.636514,32.648911 50.490491,26.507382 47.556204,13.76332 45.383508,7.1143484 43.210812,0.46537666 41.7997,-0.08744918 39.984397,0.18214423 38.169093,0.45173763 35.950541,1.543738 35.517561,2.4178822 c -0.432981,0.8741441 0.919819,1.5298861 2.580588,5.2326181 1.660769,3.7027317 3.629761,10.4522017 3.007212,15.1577347 -0.62255,4.705533 -3.836374,7.367053 -10.820798,8.391065 -6.984424,1.024013 -17.738896,0.410466 -23.3515375,0.261806 -5.6126417,-0.14866 -6.08260506,0.16757 -6.43347571,1.270487 -0.35087066,1.102918 -0.58266652,2.992211 -0.0629149,3.979194 0.51975165,0.986984 1.79082548,1.071897 10.74744408,1.345065 z" />
  </g>
  <g
     id="g30"
     transform="translate(119.07744109510276, 135.48237822852136) scale(1.65)  rotate(138.46153846153845,0,35)">
    <path
       id="path28"
       style="fill: rgb(0, 0, 0); fill-opacity: 1; stroke: rgb(0, 0, 0); stroke-width: 0px; stroke-linecap: butt; stroke-linejoin: miter; stroke-opacity: 1;"
       d="M 11.184079,38.055852 C 20.140698,38.32902 36.782538,38.79044 43.636514,32.648911 50.490491,26.507382 47.556204,13.76332 45.383508,7.1143484 43.210812,0.46537666 41.7997,-0.08744918 39.984397,0.18214423 38.169093,0.45173763 35.950541,1.543738 35.517561,2.4178822 c -0.432981,0.8741441 0.919819,1.5298861 2.580588,5.2326181 1.660769,3.7027317 3.629761,10.4522017 3.007212,15.1577347 -0.62255,4.705533 -3.836374,7.367053 -10.820798,8.391065 -6.984424,1.024013 -17.738896,0.410466 -23.3515375,0.261806 -5.6126417,-0.14866 -6.08260506,0.16757 -6.43347571,1.270487 -0.35087066,1.102918 -0.58266652,2.992211 -0.0629149,3.979194 0.51975165,0.986984 1.79082548,1.071897 10.74744408,1.345065 z" />
  </g>
  <g
     id="g34"
     transform="translate(107.5110254938453, 113.444414542953) scale(1.65)  rotate(166.15384615384616,0,35)">
    <path
       id="path32"
       style="fill: rgb(0, 0, 0); fill-opacity: 1; stroke: rgb(0, 0, 0); stroke-width: 0px; stroke-linecap: butt; stroke-linejoin: miter; stroke-opacity: 1;"
       d="M 11.184079,38.055852 C 20.140698,38.32902 36.782538,38.79044 43.636514,32.648911 50.490491,26.507382 47.556204,13.76332 45.383508,7.1143484 43.210812,0.46537666 41.7997,-0.08744918 39.984397,0.18214423 38.169093,0.45173763 35.950541,1.543738 35.517561,2.4178822 c -0.432981,0.8741441 0.919819,1.5298861 2.580588,5.2326181 1.660769,3.7027317 3.629761,10.4522017 3.007212,15.1577347 -0.62255,4.705533 -3.836374,7.367053 -10.820798,8.391065 -6.984424,1.024013 -17.738896,0.410466 -23.3515375,0.261806 -5.6126417,-0.14866 -6.08260506,0.16757 -6.43347571,1.270487 -0.35087066,1.102918 -0.58266652,2.992211 -0.0629149,3.979194 0.51975165,0.986984 1.79082548,1.071897 10.74744408,1.345065 z" />
  </g>
  <g
     id="g38"
     transform="translate(107.5110254938453, 88.55558545704699) scale(1.65)  rotate(193.84615384615387,0,35)">
    <path
       id="path36"
       style="fill: rgb(0, 0, 0); fill-opacity: 1; stroke: rgb(0, 0, 0); stroke-width: 0px; stroke-linecap: butt; stroke-linejoin: miter; stroke-opacity: 1;"
       d="M 11.184079,38.055852 C 20.140698,38.32902 36.782538,38.79044 43.636514,32.648911 50.490491,26.507382 47.556204,13.76332 45.383508,7.1143484 43.210812,0.46537666 41.7997,-0.08744918 39.984397,0.18214423 38.169093,0.45173763 35.950541,1.543738 35.517561,2.4178822 c -0.432981,0.8741441 0.919819,1.5298861 2.580588,5.2326181 1.660769,3.7027317 3.629761,10.4522017 3.007212,15.1577347 -0.62255,4.705533 -3.836374,7.367053 -10.820798,8.391065 -6.984424,1.024013 -17.738896,0.410466 -23.3515375,0.261806 -5.6126417,-0.14866 -6.08260506,0.16757 -6.43347571,1.270487 -0.35087066,1.102918 -0.58266652,2.992211 -0.0629149,3.979194 0.51975165,0.986984 1.79082548,1.071897 10.74744408,1.345065 z" />
  </g>
  <g
     id="g42"
     transform="translate(119.07744109510276, 66.51762177147864) scale(1.65)  rotate(221.53846153846155,0,35)">
    <path
       id="path40"
       style="fill: rgb(0, 0, 0); fill-opacity: 1; stroke: rgb(0, 0, 0); stroke-width: 0px; stroke-linecap: butt; stroke-linejoin: miter; stroke-opacity: 1;"
       d="M 11.184079,38.055852 C 20.140698,38.32902 36.782538,38.79044 43.636514,32.648911 50.490491,26.507382 47.556204,13.76332 45.383508,7.1143484 43.210812,0.46537666 41.7997,-0.08744918 39.984397,0.18214423 38.169093,0.45173763 35.950541,1.543738 35.517561,2.4178822 c -0.432981,0.8741441 0.919819,1.5298861 2.580588,5.2326181 1.660769,3.7027317 3.629761,10.4522017 3.007212,15.1577347 -0.62255,4.705533 -3.836374,7.367053 -10.820798,8.391065 -6.984424,1.024013 -17.738896,0.410466 -23.3515375,0.261806 -5.6126417,-0.14866 -6.08260506,0.16757 -6.43347571,1.270487 -0.35087066,1.102918 -0.58266652,2.992211 -0.0629149,3.979194 0.51975165,0.986984 1.79082548,1.071897 10.74744408,1.345065 z" />
  </g>
  <g
     id="g46"
     transform="translate(139.56054587378813, 52.37915538035843) scale(1.65)  rotate(249.23076923076923,0,35)">
    <path
       id="path44"
       style="fill: rgb(0, 0, 0); fill-opacity: 1; stroke: rgb(0, 0, 0); stroke-width: 0px; stroke-linecap: butt; stroke-linejoin: miter; stroke-opacity: 1;"
       d="M 11.184079,38.055852 C 20.140698,38.32902 36.782538,38.79044 43.636514,32.648911 50.490491,26.507382 47.556204,13.76332 45.383508,7.1143484 43.210812,0.46537666 41.7997,-0.08744918 39.984397,0.18214423 38.169093,0.45173763 35.950541,1.543738 35.517561,2.4178822 c -0.432981,0.8741441 0.919819,1.5298861 2.580588,5.2326181 1.660769,3.7027317 3.629761,10.4522017 3.007212,15.1577347 -0.62255,4.705533 -3.836374,7.367053 -10.820798,8.391065 -6.984424,1.024013 -17.738896,0.410466 -23.3515375,0.261806 -5.6126417,-0.14866 -6.08260506,0.16757 -6.43347571,1.270487 -0.35087066,1.102918 -0.58266652,2.992211 -0.0629149,3.979194 0.51975165,0.986984 1.79082548,1.071897 10.74744408,1.345065 z" />
  </g>
  <g
     id="g50"
     transform="translate(164.26790737327676, 49.37913854690119) scale(1.65)  rotate(276.9230769230769,0,35)">
    <path
       id="path48"
       style="fill: rgb(0, 0, 0); fill-opacity: 1; stroke: rgb(0, 0, 0); stroke-width: 0px; stroke-linecap: butt; stroke-linejoin: miter; stroke-opacity: 1;"
       d="M 11.184079,38.055852 C 20.140698,38.32902 36.782538,38.79044 43.636514,32.648911 50.490491,26.507382 47.556204,13.76332 45.383508,7.1143484 43.210812,0.46537666 41.7997,-0.08744918 39.984397,0.18214423 38.169093,0.45173763 35.950541,1.543738 35.517561,2.4178822 c -0.432981,0.8741441 0.919819,1.5298861 2.580588,5.2326181 1.660769,3.7027317 3.629761,10.4522017 3.007212,15.1577347 -0.62255,4.705533 -3.836374,7.367053 -10.820798,8.391065 -6.984424,1.024013 -17.738896,0.410466 -23.3515375,0.261806 -5.6126417,-0.14866 -6.08260506,0.16757 -6.43347571,1.270487 -0.35087066,1.102918 -0.58266652,2.992211 -0.0629149,3.979194 0.51975165,0.986984 1.79082548,1.071897 10.74744408,1.345065 z" />
  </g>
  <g
     id="g54"
     transform="translate(187.53936683002013, 58.20483897352989) scale(1.65)  rotate(304.61538461538464,0,35)">
    <path
       id="path52"
       style="fill: rgb(0, 0, 0); fill-opacity: 1; stroke: rgb(0, 0, 0); stroke-width: 0px; stroke-linecap: butt; stroke-linejoin: miter; stroke-opacity: 1;"
       d="M 11.184079,38.055852 C 20.140698,38.32902 36.782538,38.79044 43.636514,32.648911 50.490491,26.507382 47.556204,13.76332 45.383508,7.1143484 43.210812,0.46537666 41.7997,-0.08744918 39.984397,0.18214423 38.169093,0.45173763 35.950541,1.543738 35.517561,2.4178822 c -0.432981,0.8741441 0.919819,1.5298861 2.580588,5.2326181 1.660769,3.7027317 3.629761,10.4522017 3.007212,15.1577347 -0.62255,4.705533 -3.836374,7.367053 -10.820798,8.391065 -6.984424,1.024013 -17.738896,0.410466 -23.3515375,0.261806 -5.6126417,-0.14866 -6.08260506,0.16757 -6.43347571,1.270487 -0.35087066,1.102918 -0.58266652,2.992211 -0.0629149,3.979194 0.51975165,0.986984 1.79082548,1.071897 10.74744408,1.345065 z" />
  </g>
  <g
     id="g58"
     transform="translate(204.04371333396693, 76.83439505372405) scale(1.65)  rotate(332.3076923076923,0,35)">
    <path
       id="path56"
       style="fill: rgb(0, 0, 0); fill-opacity: 1; stroke: rgb(0, 0, 0); stroke-width: 0px; stroke-linecap: butt; stroke-linejoin: miter; stroke-opacity: 1;"
       d="M 11.184079,38.055852 C 20.140698,38.32902 36.782538,38.79044 43.636514,32.648911 50.490491,26.507382 47.556204,13.76332 45.383508,7.1143484 43.210812,0.46537666 41.7997,-0.08744918 39.984397,0.18214423 38.169093,0.45173763 35.950541,1.543738 35.517561,2.4178822 c -0.432981,0.8741441 0.919819,1.5298861 2.580588,5.2326181 1.660769,3.7027317 3.629761,10.4522017 3.007212,15.1577347 -0.62255,4.705533 -3.836374,7.367053 -10.820798,8.391065 -6.984424,1.024013 -17.738896,0.410466 -23.3515375,0.261806 -5.6126417,-0.14866 -6.08260506,0.16757 -6.43347571,1.270487 -0.35087066,1.102918 -0.58266652,2.992211 -0.0629149,3.979194 0.51975165,0.986984 1.79082548,1.071897 10.74744408,1.345065 z" />
  </g>
  <path
     d="M 157.92383 118 A 40 40 0 0 0 118 158 A 40 40 0 0 0 158 198 A 40 40 0 0 0 198 158 A 40 40 0 0 0 158 118 A 40 40 0 0 0 157.92383 118 z M 158 145 C 171.00019 145.00047 184.0015 151.50078 197 158 C 184.0015 164.49922 171.00019 170.99953 158 171 C 144.99981 171.00047 132.0001 164.50003 119 158 C 132.0001 151.49998 144.99981 144.99953 158 145 z "
     style="fill:#000000;stroke-width:3.61236"
     id="path891" />
</svg>
