<?xml version="1.0" encoding="UTF-8" standalone="no"?>
<svg xmlns:dc="http://purl.org/dc/elements/1.1/"
   xmlns:cc="http://creativecommons.org/ns#"
   xmlns:rdf="http://www.w3.org/1999/02/22-rdf-syntax-ns#"
   xmlns:svg="http://www.w3.org/2000/svg" xmlns="http://www.w3.org/2000/svg" width="316" height="316">
        <g>
            <circle cx="158" cy="158" r="50" style="fill:none; stroke:#000000; stroke-width: 10;"></circle>
            <circle cx="158" cy="158" r="150" style="fill:none; stroke:#000000; stroke-width: 16;"></circle>
        </g>
    <g transform="translate(210, 101) scale(1.65)  rotate(0,0,35)"><path d="M 11.184079,38.055852 C 20.140698,38.32902 36.782538,38.79044 43.636514,32.648911 50.490491,26.507382 47.556204,13.76332 45.383508,7.1143484 43.210812,0.46537666 41.7997,-0.08744918 39.984397,0.18214423 38.169093,0.45173763 35.950541,1.543738 35.517561,2.4178822 c -0.432981,0.8741441 0.919819,1.5298861 2.580588,5.2326181 1.660769,3.7027317 3.629761,10.4522017 3.007212,15.1577347 -0.62255,4.705533 -3.836374,7.367053 -10.820798,8.391065 -6.984424,1.024013 -17.738896,0.410466 -23.3515375,0.261806 -5.6126417,-0.14866 -6.08260506,0.16757 -6.43347571,1.270487 -0.35087066,1.102918 -0.58266652,2.992211 -0.0629149,3.979194 0.51975165,0.986984 1.79082548,1.071897 10.74744408,1.345065 z" style="fill: rgb(0, 0, 0); fill-opacity: 1; stroke: rgb(0, 0, 0); stroke-width: 0px; stroke-linecap: butt; stroke-linejoin: miter; stroke-opacity: 1;"></path></g><g transform="translate(204.0437133339669, 125.16560494627596) scale(1.65)  rotate(27.692307692307693,0,35)"><path d="M 11.184079,38.055852 C 20.140698,38.32902 36.782538,38.79044 43.636514,32.648911 50.490491,26.507382 47.556204,13.76332 45.383508,7.1143484 43.210812,0.46537666 41.7997,-0.08744918 39.984397,0.18214423 38.169093,0.45173763 35.950541,1.543738 35.517561,2.4178822 c -0.432981,0.8741441 0.919819,1.5298861 2.580588,5.2326181 1.660769,3.7027317 3.629761,10.4522017 3.007212,15.1577347 -0.62255,4.705533 -3.836374,7.367053 -10.820798,8.391065 -6.984424,1.024013 -17.738896,0.410466 -23.3515375,0.261806 -5.6126417,-0.14866 -6.08260506,0.16757 -6.43347571,1.270487 -0.35087066,1.102918 -0.58266652,2.992211 -0.0629149,3.979194 0.51975165,0.986984 1.79082548,1.071897 10.74744408,1.345065 z" style="fill: rgb(0, 0, 0); fill-opacity: 1; stroke: rgb(0, 0, 0); stroke-width: 0px; stroke-linecap: butt; stroke-linejoin: miter; stroke-opacity: 1;"></path></g><g transform="translate(187.5393668300201, 143.79516102647014) scale(1.65)  rotate(55.38461538461539,0,35)"><path d="M 11.184079,38.055852 C 20.140698,38.32902 36.782538,38.79044 43.636514,32.648911 50.490491,26.507382 47.556204,13.76332 45.383508,7.1143484 43.210812,0.46537666 41.7997,-0.08744918 39.984397,0.18214423 38.169093,0.45173763 35.950541,1.543738 35.517561,2.4178822 c -0.432981,0.8741441 0.919819,1.5298861 2.580588,5.2326181 1.660769,3.7027317 3.629761,10.4522017 3.007212,15.1577347 -0.62255,4.705533 -3.836374,7.367053 -10.820798,8.391065 -6.984424,1.024013 -17.738896,0.410466 -23.3515375,0.261806 -5.6126417,-0.14866 -6.08260506,0.16757 -6.43347571,1.270487 -0.35087066,1.102918 -0.58266652,2.992211 -0.0629149,3.979194 0.51975165,0.986984 1.79082548,1.071897 10.74744408,1.345065 z" style="fill: rgb(0, 0, 0); fill-opacity: 1; stroke: rgb(0, 0, 0); stroke-width: 0px; stroke-linecap: butt; stroke-linejoin: miter; stroke-opacity: 1;"></path></g><g transform="translate(164.26790737327678, 152.6208614530988) scale(1.65)  rotate(83.07692307692308,0,35)"><path d="M 11.184079,38.055852 C 20.140698,38.32902 36.782538,38.79044 43.636514,32.648911 50.490491,26.507382 47.556204,13.76332 45.383508,7.1143484 43.210812,0.46537666 41.7997,-0.08744918 39.984397,0.18214423 38.169093,0.45173763 35.950541,1.543738 35.517561,2.4178822 c -0.432981,0.8741441 0.919819,1.5298861 2.580588,5.2326181 1.660769,3.7027317 3.629761,10.4522017 3.007212,15.1577347 -0.62255,4.705533 -3.836374,7.367053 -10.820798,8.391065 -6.984424,1.024013 -17.738896,0.410466 -23.3515375,0.261806 -5.6126417,-0.14866 -6.08260506,0.16757 -6.43347571,1.270487 -0.35087066,1.102918 -0.58266652,2.992211 -0.0629149,3.979194 0.51975165,0.986984 1.79082548,1.071897 10.74744408,1.345065 z" style="fill: rgb(0, 0, 0); fill-opacity: 1; stroke: rgb(0, 0, 0); stroke-width: 0px; stroke-linecap: butt; stroke-linejoin: miter; stroke-opacity: 1;"></path></g><g transform="translate(139.56054587378816, 149.62084461964156) scale(1.65)  rotate(110.76923076923077,0,35)"><path d="M 11.184079,38.055852 C 20.140698,38.32902 36.782538,38.79044 43.636514,32.648911 50.490491,26.507382 47.556204,13.76332 45.383508,7.1143484 43.210812,0.46537666 41.7997,-0.08744918 39.984397,0.18214423 38.169093,0.45173763 35.950541,1.543738 35.517561,2.4178822 c -0.432981,0.8741441 0.919819,1.5298861 2.580588,5.2326181 1.660769,3.7027317 3.629761,10.4522017 3.007212,15.1577347 -0.62255,4.705533 -3.836374,7.367053 -10.820798,8.391065 -6.984424,1.024013 -17.738896,0.410466 -23.3515375,0.261806 -5.6126417,-0.14866 -6.08260506,0.16757 -6.43347571,1.270487 -0.35087066,1.102918 -0.58266652,2.992211 -0.0629149,3.979194 0.51975165,0.986984 1.79082548,1.071897 10.74744408,1.345065 z" style="fill: rgb(0, 0, 0); fill-opacity: 1; stroke: rgb(0, 0, 0); stroke-width: 0px; stroke-linecap: butt; stroke-linejoin: miter; stroke-opacity: 1;"></path></g><g transform="translate(119.07744109510276, 135.48237822852136) scale(1.65)  rotate(138.46153846153845,0,35)"><path d="M 11.184079,38.055852 C 20.140698,38.32902 36.782538,38.79044 43.636514,32.648911 50.490491,26.507382 47.556204,13.76332 45.383508,7.1143484 43.210812,0.46537666 41.7997,-0.08744918 39.984397,0.18214423 38.169093,0.45173763 35.950541,1.543738 35.517561,2.4178822 c -0.432981,0.8741441 0.919819,1.5298861 2.580588,5.2326181 1.660769,3.7027317 3.629761,10.4522017 3.007212,15.1577347 -0.62255,4.705533 -3.836374,7.367053 -10.820798,8.391065 -6.984424,1.024013 -17.738896,0.410466 -23.3515375,0.261806 -5.6126417,-0.14866 -6.08260506,0.16757 -6.43347571,1.270487 -0.35087066,1.102918 -0.58266652,2.992211 -0.0629149,3.979194 0.51975165,0.986984 1.79082548,1.071897 10.74744408,1.345065 z" style="fill: rgb(0, 0, 0); fill-opacity: 1; stroke: rgb(0, 0, 0); stroke-width: 0px; stroke-linecap: butt; stroke-linejoin: miter; stroke-opacity: 1;"></path></g><g transform="translate(107.5110254938453, 113.444414542953) scale(1.65)  rotate(166.15384615384616,0,35)"><path d="M 11.184079,38.055852 C 20.140698,38.32902 36.782538,38.79044 43.636514,32.648911 50.490491,26.507382 47.556204,13.76332 45.383508,7.1143484 43.210812,0.46537666 41.7997,-0.08744918 39.984397,0.18214423 38.169093,0.45173763 35.950541,1.543738 35.517561,2.4178822 c -0.432981,0.8741441 0.919819,1.5298861 2.580588,5.2326181 1.660769,3.7027317 3.629761,10.4522017 3.007212,15.1577347 -0.62255,4.705533 -3.836374,7.367053 -10.820798,8.391065 -6.984424,1.024013 -17.738896,0.410466 -23.3515375,0.261806 -5.6126417,-0.14866 -6.08260506,0.16757 -6.43347571,1.270487 -0.35087066,1.102918 -0.58266652,2.992211 -0.0629149,3.979194 0.51975165,0.986984 1.79082548,1.071897 10.74744408,1.345065 z" style="fill: rgb(0, 0, 0); fill-opacity: 1; stroke: rgb(0, 0, 0); stroke-width: 0px; stroke-linecap: butt; stroke-linejoin: miter; stroke-opacity: 1;"></path></g><g transform="translate(107.5110254938453, 88.55558545704699) scale(1.65)  rotate(193.84615384615387,0,35)"><path d="M 11.184079,38.055852 C 20.140698,38.32902 36.782538,38.79044 43.636514,32.648911 50.490491,26.507382 47.556204,13.76332 45.383508,7.1143484 43.210812,0.46537666 41.7997,-0.08744918 39.984397,0.18214423 38.169093,0.45173763 35.950541,1.543738 35.517561,2.4178822 c -0.432981,0.8741441 0.919819,1.5298861 2.580588,5.2326181 1.660769,3.7027317 3.629761,10.4522017 3.007212,15.1577347 -0.62255,4.705533 -3.836374,7.367053 -10.820798,8.391065 -6.984424,1.024013 -17.738896,0.410466 -23.3515375,0.261806 -5.6126417,-0.14866 -6.08260506,0.16757 -6.43347571,1.270487 -0.35087066,1.102918 -0.58266652,2.992211 -0.0629149,3.979194 0.51975165,0.986984 1.79082548,1.071897 10.74744408,1.345065 z" style="fill: rgb(0, 0, 0); fill-opacity: 1; stroke: rgb(0, 0, 0); stroke-width: 0px; stroke-linecap: butt; stroke-linejoin: miter; stroke-opacity: 1;"></path></g><g transform="translate(119.07744109510276, 66.51762177147864) scale(1.65)  rotate(221.53846153846155,0,35)"><path d="M 11.184079,38.055852 C 20.140698,38.32902 36.782538,38.79044 43.636514,32.648911 50.490491,26.507382 47.556204,13.76332 45.383508,7.1143484 43.210812,0.46537666 41.7997,-0.08744918 39.984397,0.18214423 38.169093,0.45173763 35.950541,1.543738 35.517561,2.4178822 c -0.432981,0.8741441 0.919819,1.5298861 2.580588,5.2326181 1.660769,3.7027317 3.629761,10.4522017 3.007212,15.1577347 -0.62255,4.705533 -3.836374,7.367053 -10.820798,8.391065 -6.984424,1.024013 -17.738896,0.410466 -23.3515375,0.261806 -5.6126417,-0.14866 -6.08260506,0.16757 -6.43347571,1.270487 -0.35087066,1.102918 -0.58266652,2.992211 -0.0629149,3.979194 0.51975165,0.986984 1.79082548,1.071897 10.74744408,1.345065 z" style="fill: rgb(0, 0, 0); fill-opacity: 1; stroke: rgb(0, 0, 0); stroke-width: 0px; stroke-linecap: butt; stroke-linejoin: miter; stroke-opacity: 1;"></path></g><g transform="translate(139.56054587378813, 52.37915538035843) scale(1.65)  rotate(249.23076923076923,0,35)"><path d="M 11.184079,38.055852 C 20.140698,38.32902 36.782538,38.79044 43.636514,32.648911 50.490491,26.507382 47.556204,13.76332 45.383508,7.1143484 43.210812,0.46537666 41.7997,-0.08744918 39.984397,0.18214423 38.169093,0.45173763 35.950541,1.543738 35.517561,2.4178822 c -0.432981,0.8741441 0.919819,1.5298861 2.580588,5.2326181 1.660769,3.7027317 3.629761,10.4522017 3.007212,15.1577347 -0.62255,4.705533 -3.836374,7.367053 -10.820798,8.391065 -6.984424,1.024013 -17.738896,0.410466 -23.3515375,0.261806 -5.6126417,-0.14866 -6.08260506,0.16757 -6.43347571,1.270487 -0.35087066,1.102918 -0.58266652,2.992211 -0.0629149,3.979194 0.51975165,0.986984 1.79082548,1.071897 10.74744408,1.345065 z" style="fill: rgb(0, 0, 0); fill-opacity: 1; stroke: rgb(0, 0, 0); stroke-width: 0px; stroke-linecap: butt; stroke-linejoin: miter; stroke-opacity: 1;"></path></g><g transform="translate(164.26790737327676, 49.37913854690119) scale(1.65)  rotate(276.9230769230769,0,35)"><path d="M 11.184079,38.055852 C 20.140698,38.32902 36.782538,38.79044 43.636514,32.648911 50.490491,26.507382 47.556204,13.76332 45.383508,7.1143484 43.210812,0.46537666 41.7997,-0.08744918 39.984397,0.18214423 38.169093,0.45173763 35.950541,1.543738 35.517561,2.4178822 c -0.432981,0.8741441 0.919819,1.5298861 2.580588,5.2326181 1.660769,3.7027317 3.629761,10.4522017 3.007212,15.1577347 -0.62255,4.705533 -3.836374,7.367053 -10.820798,8.391065 -6.984424,1.024013 -17.738896,0.410466 -23.3515375,0.261806 -5.6126417,-0.14866 -6.08260506,0.16757 -6.43347571,1.270487 -0.35087066,1.102918 -0.58266652,2.992211 -0.0629149,3.979194 0.51975165,0.986984 1.79082548,1.071897 10.74744408,1.345065 z" style="fill: rgb(0, 0, 0); fill-opacity: 1; stroke: rgb(0, 0, 0); stroke-width: 0px; stroke-linecap: butt; stroke-linejoin: miter; stroke-opacity: 1;"></path></g><g transform="translate(187.53936683002013, 58.20483897352989) scale(1.65)  rotate(304.61538461538464,0,35)"><path d="M 11.184079,38.055852 C 20.140698,38.32902 36.782538,38.79044 43.636514,32.648911 50.490491,26.507382 47.556204,13.76332 45.383508,7.1143484 43.210812,0.46537666 41.7997,-0.08744918 39.984397,0.18214423 38.169093,0.45173763 35.950541,1.543738 35.517561,2.4178822 c -0.432981,0.8741441 0.919819,1.5298861 2.580588,5.2326181 1.660769,3.7027317 3.629761,10.4522017 3.007212,15.1577347 -0.62255,4.705533 -3.836374,7.367053 -10.820798,8.391065 -6.984424,1.024013 -17.738896,0.410466 -23.3515375,0.261806 -5.6126417,-0.14866 -6.08260506,0.16757 -6.43347571,1.270487 -0.35087066,1.102918 -0.58266652,2.992211 -0.0629149,3.979194 0.51975165,0.986984 1.79082548,1.071897 10.74744408,1.345065 z" style="fill: rgb(0, 0, 0); fill-opacity: 1; stroke: rgb(0, 0, 0); stroke-width: 0px; stroke-linecap: butt; stroke-linejoin: miter; stroke-opacity: 1;"></path></g><g transform="translate(204.04371333396693, 76.83439505372405) scale(1.65)  rotate(332.3076923076923,0,35)"><path d="M 11.184079,38.055852 C 20.140698,38.32902 36.782538,38.79044 43.636514,32.648911 50.490491,26.507382 47.556204,13.76332 45.383508,7.1143484 43.210812,0.46537666 41.7997,-0.08744918 39.984397,0.18214423 38.169093,0.45173763 35.950541,1.543738 35.517561,2.4178822 c -0.432981,0.8741441 0.919819,1.5298861 2.580588,5.2326181 1.660769,3.7027317 3.629761,10.4522017 3.007212,15.1577347 -0.62255,4.705533 -3.836374,7.367053 -10.820798,8.391065 -6.984424,1.024013 -17.738896,0.410466 -23.3515375,0.261806 -5.6126417,-0.14866 -6.08260506,0.16757 -6.43347571,1.270487 -0.35087066,1.102918 -0.58266652,2.992211 -0.0629149,3.979194 0.51975165,0.986984 1.79082548,1.071897 10.74744408,1.345065 z" style="fill: rgb(0, 0, 0); fill-opacity: 1; stroke: rgb(0, 0, 0); stroke-width: 0px; stroke-linecap: butt; stroke-linejoin: miter; stroke-opacity: 1;"></path></g></svg>